<svg xmlns="http://www.w3.org/2000/svg" width="447" height="332" viewBox="0 0 447 332" version="1.1">
	<path d="M 217.031 1.463 C 215.288 3.563, 214.119 15.570, 214.058 32 C 214.014 43.716, 214.267 45.926, 215.973 48.723 C 217.901 51.885, 221.711 53.709, 224.308 52.712 C 226.990 51.683, 228 44.338, 227.998 25.884 C 227.997 10.385, 227.723 6.951, 226.248 4 C 224.897 1.295, 223.799 0.432, 221.415 0.199 C 219.527 0.015, 217.826 0.505, 217.031 1.463 M 145.490 28.384 C 141.839 31.054, 144.094 41.506, 150.693 52.500 C 155.755 60.933, 158.820 64, 162.187 64 C 164.794 64, 165 63.712, 165 60.067 C 165 55.394, 158.509 37.272, 154.678 31.250 C 151.775 26.686, 148.997 25.819, 145.490 28.384 M 295 31.136 C 293.132 31.783, 291.649 33.963, 289.138 39.751 C 287.289 44.013, 284.476 50.255, 282.888 53.623 C 279.267 61.299, 279.185 63.757, 282.519 64.594 C 287.352 65.807, 290.543 63.386, 294.281 55.668 C 303.502 36.630, 303.344 37.051, 302.191 34.519 C 300.730 31.312, 298.084 30.068, 295 31.136 M 70.539 52.348 C 68.090 54.138, 68.888 60.515, 72.140 65.142 C 83.779 81.704, 102.453 100, 107.718 100 C 108.740 100, 111.091 98.735, 112.943 97.188 C 117.115 93.706, 116.744 91.150, 111.288 85.756 C 109.204 83.697, 105.475 80.009, 103 77.562 C 100.525 75.115, 95.629 69.375, 92.119 64.806 C 88.609 60.238, 84.149 55.263, 82.208 53.750 C 78.332 50.731, 73.539 50.155, 70.539 52.348 M 351.134 71.632 C 332.391 89.642, 330.012 93.666, 334.807 99.250 C 338.427 103.465, 342.032 101.042, 362.194 80.847 C 369.141 73.888, 375.315 67.280, 375.913 66.163 C 378.547 61.241, 375.559 57, 369.459 57 C 366.833 57, 364.053 59.219, 351.134 71.632 M 211.500 78.581 C 210.400 78.836, 204.775 79.987, 199 81.138 C 193.225 82.290, 185.835 84.305, 182.578 85.616 C 179.320 86.927, 176.149 88, 175.530 88 C 174.560 88, 158.776 95.704, 151.150 99.899 C 142.262 104.788, 128.674 115.083, 123.620 120.757 C 121.885 122.705, 118.205 127.191, 115.626 130.500 C 112.285 134.788, 105.270 146.555, 104.459 149.232 C 104.081 150.479, 102.931 152.891, 101.903 154.591 C 100.874 156.291, 98.870 162.591, 97.449 168.591 C 93.258 186.289, 92.866 189.064, 94.052 192.657 C 96.212 199.203, 106.226 202.145, 112.429 198.056 C 115.129 196.276, 115.729 194.649, 120.085 177.312 C 122.685 166.966, 125.825 156.250, 127.063 153.500 C 131.134 144.457, 141.284 132.428, 152.005 123.941 C 157.870 119.298, 168.406 112, 169.243 112 C 169.604 112, 171.900 110.650, 174.345 109 C 176.790 107.350, 179.231 106, 179.769 106 C 180.308 106, 182.746 104.884, 185.187 103.519 C 191.764 99.843, 203.466 97.869, 222.199 97.276 C 243.826 96.591, 261.691 99.236, 272 104.651 C 282.773 110.309, 292.918 118.644, 300.558 128.116 C 303.276 131.485, 306.288 134.963, 307.250 135.843 C 308.212 136.724, 309 137.860, 309 138.369 C 309 138.877, 310.575 141.666, 312.500 144.566 C 314.425 147.466, 316 150.148, 316 150.527 C 316 150.905, 317.303 153.978, 318.896 157.357 C 320.489 160.736, 322.251 165.525, 322.813 168 C 325.854 181.414, 330.926 196.123, 333.149 197.974 C 337.325 201.454, 344.513 200.958, 348.250 196.932 C 351.647 193.271, 351.637 192.168, 348.083 178.500 C 341.533 153.306, 327.635 126.264, 315.363 114.833 C 313.788 113.367, 311.392 111.117, 310.037 109.833 C 308.683 108.550, 306.582 106.825, 305.368 106 C 304.155 105.175, 300.301 102.475, 296.805 100 C 285.216 91.796, 269.974 84.982, 255.009 81.314 C 246.519 79.233, 241.522 78.679, 229 78.428 C 220.475 78.257, 212.600 78.326, 211.500 78.581 M 215.500 126.968 C 199.817 129.622, 186.683 134.449, 176.868 141.165 C 167.405 147.640, 156 162.539, 156 168.425 C 156 173.088, 162.337 175.340, 168.685 172.932 C 170.233 172.345, 175.325 168.149, 180 163.609 C 190.110 153.790, 196.565 149.929, 208 146.861 C 224.199 142.515, 247.295 144.914, 259.111 152.169 C 261.646 153.726, 264.154 155, 264.684 155 C 266.006 155, 276.817 165.658, 278.850 168.964 C 281.005 172.472, 287.360 178, 289.236 178 C 290.046 178, 291.899 176.896, 293.354 175.548 C 295.326 173.720, 295.998 172.128, 295.990 169.298 C 295.970 161.453, 286.998 147.010, 279.636 142.972 C 277.361 141.724, 274.825 140.142, 274 139.457 C 271.193 137.125, 255.530 131.259, 246.475 129.149 C 235.968 126.701, 222.626 125.761, 215.500 126.968 M 390 131.727 C 389.175 132.040, 386.250 133.302, 383.500 134.531 C 380.750 135.760, 377.600 137.044, 376.500 137.384 C 373.921 138.182, 367 144.743, 367 146.389 C 367 147.083, 368.119 148.702, 369.486 149.987 L 371.971 152.322 380.236 150.062 C 394.831 146.070, 403.138 139.308, 400.895 133.245 C 400.204 131.377, 399.345 131.013, 395.782 131.079 C 393.427 131.122, 390.825 131.414, 390 131.727 M 48.427 132.765 C 46.734 133.925, 46.192 136.309, 47.079 138.696 C 48.675 142.989, 69.845 151.136, 75.083 149.474 C 80.715 147.686, 72.734 139.502, 60.841 134.868 C 53.378 131.960, 50.352 131.447, 48.427 132.765 M 210.265 168.477 C 199.756 171.436, 193.784 175.513, 187.006 184.355 C 178.030 196.065, 185.483 205.595, 196.868 196.964 C 199.547 194.933, 201.761 193.174, 208 188.118 C 212.990 184.074, 220.555 181, 225.518 181 C 231.839 181, 241.145 185.720, 248.675 192.745 C 253.925 197.644, 259.696 199.276, 261.991 196.511 C 265.208 192.635, 259.176 182.454, 250.177 176.573 C 238.854 169.174, 220.798 165.511, 210.265 168.477 M 9.201 185.632 C 8.116 187.665, 7.705 190.217, 7.885 193.801 C 8.076 197.623, 13.436 199.046, 31.910 200.175 C 47.356 201.120, 62.805 200.780, 66.356 199.417 C 68.150 198.729, 69.414 193.878, 68.527 191.084 C 67.529 187.940, 62.671 187.041, 40.954 185.979 C 29.704 185.429, 18.182 184.706, 15.348 184.372 C 10.967 183.855, 10.047 184.044, 9.201 185.632 M 386.314 186.950 C 380.021 190.787, 380.176 195.544, 386.701 198.812 C 390.235 200.581, 392.001 200.662, 412 199.965 C 428.978 199.374, 434.394 198.846, 437.750 197.456 C 443.408 195.114, 443.606 192.017, 438.250 189.640 C 432.825 187.232, 415.369 185.039, 401.500 185.022 C 391.361 185.010, 389.006 185.309, 386.314 186.950 M 103.270 228.747 C 91.487 229.024, 89.928 229.265, 89.025 230.954 C 88.466 231.997, 86.906 238.172, 85.557 244.675 C 80.072 271.113, 77.827 281.471, 77.448 282.084 C 77.228 282.440, 76.136 288.529, 75.020 295.615 C 73.904 302.702, 72.028 312.425, 70.850 317.223 C 67.941 329.076, 68.011 329.146, 82.355 328.781 L 93.414 328.500 94.227 324.578 C 95.430 318.776, 96.484 317.987, 102.872 318.100 C 112.176 318.264, 113.373 318.908, 114.352 324.269 C 115.124 328.496, 115.511 328.999, 118.353 329.473 C 120.084 329.761, 125.550 329.661, 130.500 329.249 C 141.396 328.342, 141.297 328.557, 137.584 313.727 C 136.176 308.102, 134.546 300.350, 133.963 296.500 C 133.380 292.650, 132.269 287.025, 131.495 284 C 130.720 280.975, 129.405 274.675, 128.571 270 C 127.738 265.325, 125.967 256.325, 124.634 250 C 123.302 243.675, 121.922 236.827, 121.567 234.782 C 120.951 231.234, 118.624 227.753, 117.179 228.218 C 116.805 228.338, 110.546 228.576, 103.270 228.747 M 423.185 228.882 L 419.870 229.500 419.878 278.860 C 419.883 306.008, 420.173 328.506, 420.522 328.855 C 421.620 329.953, 444.106 330.294, 445.171 329.229 C 446.723 327.677, 446.280 229.797, 444.716 228.803 C 443.312 227.911, 428.091 227.966, 423.185 228.882 M 1.020 263.750 C 1.040 298.508, 1.785 309.755, 4.404 314.808 C 7.379 320.549, 13.940 326.791, 18.753 328.460 C 29.773 332.282, 43.995 331.345, 51.258 326.318 C 55.796 323.177, 61.395 315.619, 63.086 310.353 C 64.567 305.740, 65.343 265.598, 64.375 243.750 L 63.721 229 51.360 229 C 39.236 229, 38.998 229.043, 38.908 231.250 C 38.857 232.488, 38.895 249.173, 38.992 268.328 C 39.153 300.161, 39.019 303.322, 37.429 305.078 C 35.137 307.611, 31.516 307.516, 28.855 304.855 C 26.745 302.745, 26.718 302.291, 27.236 277.605 C 27.525 263.797, 27.528 247.213, 27.242 240.750 L 26.721 229 13.861 229 L 1 229 1.020 263.750 M 144.863 229.164 C 144.788 229.349, 144.604 251.550, 144.453 278.500 C 144.272 311.115, 144.525 327.918, 145.213 328.750 C 146.472 330.275, 164.583 330.489, 168.435 329.025 L 171 328.050 171 311.525 L 171 295 174.845 295 C 181.060 295, 181.724 296.526, 182.243 312 C 182.492 319.425, 183.018 326.236, 183.411 327.136 C 184.704 330.093, 211 330.879, 211 327.961 C 211 327.486, 210.325 324.506, 209.500 321.339 C 208.626 317.981, 208 311.182, 208 305.033 C 208 299.233, 207.609 293.140, 207.131 291.493 C 205.683 286.504, 200.098 281.305, 194.733 279.954 C 189.850 278.725, 188.450 277.699, 189.449 276.083 C 189.789 275.533, 191.503 275.576, 193.729 276.191 C 201.086 278.222, 206.769 272.683, 209.131 261.181 C 210.974 252.208, 208.629 243.237, 202.920 237.419 C 196.371 230.745, 191.337 229.616, 166.250 229.189 C 154.563 228.991, 144.939 228.979, 144.863 229.164 M 231.596 230.250 C 230.955 232.598, 226.705 254.485, 225.431 262 C 224.732 266.125, 223.689 270.850, 223.114 272.500 C 222.539 274.150, 221.141 281.324, 220.007 288.441 C 218.873 295.559, 217.017 305.009, 215.883 309.441 C 214.748 313.874, 213.748 320.200, 213.660 323.500 L 213.500 329.500 224 329.753 C 229.775 329.892, 235.112 329.610, 235.859 329.127 C 236.606 328.643, 237.452 326.167, 237.739 323.624 L 238.260 319 247.118 319 L 255.976 319 256.594 322.862 C 256.934 324.986, 257.597 327.349, 258.068 328.112 C 259.233 330, 279.407 330.737, 281.537 328.970 C 283.493 327.346, 283.380 323.381, 281.116 314.167 C 279.295 306.754, 275.569 288.512, 270.358 261.500 C 266.230 240.101, 264.828 233.718, 263.727 231.299 C 262.700 229.045, 262.376 229, 247.308 229 C 235.860 229, 231.850 229.319, 231.596 230.250 M 289.214 230.068 C 285.336 231.258, 285.697 232.465, 290.229 233.460 L 293.500 234.178 289.500 235.964 L 285.500 237.751 289.241 238.485 C 293.535 239.328, 293.422 240.466, 288.955 241.359 C 285.330 242.084, 285.914 244, 289.759 244 C 292.655 244, 291.796 245.571, 288.583 246.153 C 285.390 246.731, 285.733 248.632, 289.218 249.673 L 292.500 250.654 289.250 251.407 C 285.183 252.348, 285.083 253.640, 289.009 254.502 C 292.506 255.270, 292.056 257, 288.358 257 C 284.785 257, 285.897 259.217, 290.003 260.281 C 292.559 260.943, 293.024 261.372, 291.935 262.061 C 291.146 262.561, 289.375 263.010, 288 263.059 C 285.827 263.137, 286.017 263.377, 289.448 264.891 C 292.627 266.294, 293.050 266.767, 291.616 267.317 C 290.637 267.693, 288.861 268.034, 287.668 268.076 C 285.949 268.136, 286.159 268.395, 288.678 269.326 C 293.265 271.020, 293.485 271.644, 289.785 272.465 L 286.500 273.193 290 274.758 L 293.500 276.323 289.750 277.261 C 285.254 278.385, 284.812 280, 289 280 C 292.442 280, 293.088 281.701, 289.828 282.180 C 286.591 282.657, 286.518 284.655, 289.706 285.515 L 292.500 286.268 289 287.254 C 285.297 288.296, 285.341 288.354, 291.500 290.544 C 293.214 291.154, 292.999 291.399, 290 292.261 L 286.500 293.266 289.933 294.711 C 292.590 295.829, 293.042 296.361, 291.933 297.062 C 291.145 297.561, 289.637 297.976, 288.583 297.985 C 286.070 298.005, 287.343 299.222, 291.322 300.603 L 294.500 301.706 291.250 302.432 C 287.715 303.223, 286.809 305, 289.941 305 C 293.174 305, 293.222 306.792, 290.009 307.498 C 286.664 308.233, 285.910 310, 288.941 310 C 291.933 310, 292.294 311.709, 289.452 312.423 C 286.616 313.135, 287.055 315, 290.059 315 C 291.127 315, 292 315.450, 292 316 C 292 316.550, 291.127 317, 290.059 317 C 286.780 317, 286.674 318.985, 289.917 319.633 C 293.169 320.284, 293.186 322, 289.941 322 C 287.125 322, 287.562 323.445, 290.750 324.677 L 293.500 325.739 290 327.083 L 286.500 328.428 289.500 329.095 C 294.573 330.225, 323.588 330.066, 329.201 328.878 C 336.083 327.422, 338.701 326.026, 343.757 321.120 C 349.034 315.998, 351.328 311.412, 353.318 302 C 356.059 289.039, 356.303 282.151, 354.528 267.908 C 352.443 251.175, 351.524 247.504, 348.173 242.539 C 340.932 231.811, 335.517 229.925, 310.500 229.422 C 300.116 229.213, 291.110 229.486, 289.214 230.068 M 360.223 278.917 C 360.375 306.372, 360.725 329.028, 361 329.264 C 361.275 329.500, 373.327 329.480, 387.782 329.219 L 414.063 328.745 413.782 317.622 L 413.500 306.500 399.708 306.222 L 385.917 305.943 386.208 298.222 L 386.500 290.500 397.500 290 L 408.500 289.500 408.500 279.500 L 408.500 269.500 397 269 L 385.500 268.500 385.206 261.236 C 384.993 255.979, 385.269 253.845, 386.206 253.516 C 386.918 253.265, 393.125 252.901, 400 252.707 L 412.500 252.354 412.782 240.677 L 413.063 229 386.505 229 L 359.946 229 360.223 278.917 M 171 261.500 C 171 272.663, 171.064 273, 173.188 273 C 174.392 273, 176.864 271.988, 178.682 270.750 C 182.408 268.214, 183.583 264.384, 182.686 257.697 C 182.011 252.666, 179.138 250, 174.389 250 L 171 250 171 261.500 M 315.667 251.667 C 315.300 252.033, 315 264.633, 315 279.667 L 315 307 317.777 307 C 319.305 307, 321.521 306.324, 322.701 305.497 C 326.613 302.757, 327.500 297.765, 327.500 278.500 C 327.500 261.288, 327.396 260.333, 325.123 256.677 C 322.425 252.337, 317.569 249.764, 315.667 251.667 M 103.544 257.928 C 103.218 258.456, 102.294 265.776, 101.490 274.194 C 100.687 282.612, 99.750 290.794, 99.408 292.375 C 98.681 295.734, 100.051 296.969, 104.500 296.969 C 109.951 296.969, 110.099 296.510, 108.529 284.455 C 107.745 278.430, 106.792 270, 106.411 265.722 C 105.751 258.303, 104.841 255.830, 103.544 257.928 M 245.475 265.750 C 245.092 270.012, 244.184 278.429, 243.457 284.454 C 242.729 290.479, 242.356 295.766, 242.626 296.204 C 242.897 296.642, 245.791 297, 249.059 297 C 255.490 297, 256.198 296.127, 254.093 290.797 C 253.594 289.534, 252.435 282.425, 251.517 275 C 249.554 259.120, 249.291 258, 247.518 258 C 246.564 258, 245.967 260.263, 245.475 265.750" stroke="none" fill="#000000" fill-rule="evenodd"/>
</svg>