<svg xmlns="http://www.w3.org/2000/svg" width="525" height="357" viewBox="0 0 525 357" version="1.1">
	<path d="M 255.031 13.463 C 253.288 15.563, 252.119 27.570, 252.058 44 C 252.014 55.716, 252.267 57.926, 253.973 60.723 C 255.901 63.885, 259.711 65.709, 262.308 64.712 C 264.990 63.683, 266 56.338, 265.998 37.884 C 265.997 22.385, 265.723 18.951, 264.248 16 C 262.897 13.295, 261.799 12.432, 259.415 12.199 C 257.527 12.015, 255.826 12.505, 255.031 13.463 M 183.490 40.384 C 179.839 43.054, 182.094 53.506, 188.693 64.500 C 193.755 72.933, 196.820 76, 200.187 76 C 202.794 76, 203 75.712, 203 72.067 C 203 67.394, 196.509 49.272, 192.678 43.250 C 189.775 38.686, 186.997 37.819, 183.490 40.384 M 333 43.136 C 331.132 43.783, 329.649 45.963, 327.138 51.751 C 325.289 56.013, 322.476 62.255, 320.888 65.623 C 317.267 73.299, 317.185 75.757, 320.519 76.594 C 325.352 77.807, 328.543 75.386, 332.281 67.668 C 341.502 48.630, 341.344 49.051, 340.191 46.519 C 338.730 43.312, 336.084 42.068, 333 43.136 M 108.539 64.348 C 106.090 66.138, 106.888 72.515, 110.140 77.142 C 121.779 93.704, 140.453 112, 145.718 112 C 146.740 112, 149.091 110.735, 150.943 109.188 C 155.115 105.706, 154.744 103.150, 149.288 97.756 C 147.204 95.697, 143.475 92.009, 141 89.562 C 138.525 87.115, 133.629 81.375, 130.119 76.806 C 126.609 72.238, 122.149 67.263, 120.208 65.750 C 116.332 62.731, 111.539 62.155, 108.539 64.348 M 389.134 83.632 C 370.391 101.642, 368.012 105.666, 372.807 111.250 C 376.427 115.465, 380.032 113.042, 400.194 92.847 C 407.141 85.888, 413.315 79.280, 413.913 78.163 C 416.547 73.241, 413.559 69, 407.459 69 C 404.833 69, 402.053 71.219, 389.134 83.632 M 249.500 90.581 C 248.400 90.836, 242.775 91.987, 237 93.138 C 231.225 94.290, 223.835 96.305, 220.578 97.616 C 217.320 98.927, 214.149 100, 213.530 100 C 212.560 100, 196.776 107.704, 189.150 111.899 C 180.262 116.788, 166.674 127.083, 161.620 132.757 C 159.885 134.705, 156.205 139.191, 153.626 142.500 C 150.285 146.788, 143.270 158.555, 142.459 161.232 C 142.081 162.479, 140.931 164.891, 139.903 166.591 C 138.874 168.291, 136.870 174.591, 135.449 180.591 C 131.258 198.289, 130.866 201.064, 132.052 204.657 C 134.212 211.203, 144.226 214.145, 150.429 210.056 C 153.129 208.276, 153.729 206.649, 158.085 189.312 C 160.685 178.966, 163.825 168.250, 165.063 165.500 C 169.134 156.457, 179.284 144.428, 190.005 135.941 C 195.870 131.298, 206.406 124, 207.243 124 C 207.604 124, 209.900 122.650, 212.345 121 C 214.790 119.350, 217.231 118, 217.769 118 C 218.308 118, 220.746 116.884, 223.187 115.519 C 229.764 111.843, 241.466 109.869, 260.199 109.276 C 281.826 108.591, 299.691 111.236, 310 116.651 C 320.773 122.309, 330.918 130.644, 338.558 140.116 C 341.276 143.485, 344.288 146.963, 345.250 147.843 C 346.212 148.724, 347 149.860, 347 150.369 C 347 150.877, 348.575 153.666, 350.500 156.566 C 352.425 159.466, 354 162.148, 354 162.527 C 354 162.905, 355.303 165.978, 356.896 169.357 C 358.489 172.736, 360.251 177.525, 360.813 180 C 363.854 193.414, 368.926 208.123, 371.149 209.974 C 375.325 213.454, 382.513 212.958, 386.250 208.932 C 389.647 205.271, 389.637 204.168, 386.083 190.500 C 379.533 165.306, 365.635 138.264, 353.363 126.833 C 351.788 125.367, 349.392 123.117, 348.037 121.833 C 346.683 120.550, 344.582 118.825, 343.368 118 C 342.155 117.175, 338.301 114.475, 334.805 112 C 323.216 103.796, 307.974 96.982, 293.009 93.314 C 284.519 91.233, 279.522 90.679, 267 90.428 C 258.475 90.257, 250.600 90.326, 249.500 90.581 M 253.500 138.968 C 237.817 141.622, 224.683 146.449, 214.868 153.165 C 205.405 159.640, 194 174.539, 194 180.425 C 194 185.088, 200.337 187.340, 206.685 184.932 C 208.233 184.345, 213.325 180.149, 218 175.609 C 228.110 165.790, 234.565 161.929, 246 158.861 C 262.199 154.515, 285.295 156.914, 297.111 164.169 C 299.646 165.726, 302.154 167, 302.684 167 C 304.006 167, 314.817 177.658, 316.850 180.964 C 319.005 184.472, 325.360 190, 327.236 190 C 328.046 190, 329.899 188.896, 331.354 187.548 C 333.326 185.720, 333.998 184.128, 333.990 181.298 C 333.970 173.453, 324.998 159.010, 317.636 154.972 C 315.361 153.724, 312.825 152.142, 312 151.457 C 309.193 149.125, 293.530 143.259, 284.475 141.149 C 273.968 138.701, 260.626 137.761, 253.500 138.968 M 428 143.727 C 427.175 144.040, 424.250 145.302, 421.500 146.531 C 418.750 147.760, 415.600 149.044, 414.500 149.384 C 411.921 150.182, 405 156.743, 405 158.389 C 405 159.083, 406.119 160.702, 407.486 161.987 L 409.971 164.322 418.236 162.062 C 432.831 158.070, 441.138 151.308, 438.895 145.245 C 438.204 143.377, 437.345 143.013, 433.782 143.079 C 431.427 143.122, 428.825 143.414, 428 143.727 M 86.427 144.765 C 84.734 145.925, 84.192 148.309, 85.079 150.696 C 86.675 154.989, 107.845 163.136, 113.083 161.474 C 118.715 159.686, 110.734 151.502, 98.841 146.868 C 91.378 143.960, 88.352 143.447, 86.427 144.765 M 248.500 180.431 C 237.183 183.664, 232.117 187.098, 225.011 196.355 C 216.026 208.059, 223.482 217.596, 234.868 208.964 C 237.547 206.933, 239.761 205.174, 246 200.118 C 250.990 196.074, 258.555 193, 263.518 193 C 269.839 193, 279.145 197.720, 286.675 204.745 C 291.925 209.644, 297.696 211.276, 299.991 208.511 C 303.208 204.635, 297.176 194.454, 288.177 188.573 C 276.954 181.238, 258.751 177.503, 248.500 180.431 M 47.201 197.632 C 46.116 199.665, 45.705 202.217, 45.885 205.801 C 46.076 209.623, 51.436 211.046, 69.910 212.175 C 85.356 213.120, 100.805 212.780, 104.356 211.417 C 106.150 210.729, 107.414 205.878, 106.527 203.084 C 105.529 199.940, 100.671 199.041, 78.954 197.979 C 67.704 197.429, 56.182 196.706, 53.348 196.372 C 48.967 195.855, 48.047 196.044, 47.201 197.632 M 424.314 198.950 C 418.021 202.787, 418.176 207.544, 424.701 210.812 C 428.235 212.581, 430.001 212.662, 450 211.965 C 466.978 211.374, 472.394 210.846, 475.750 209.456 C 481.408 207.114, 481.606 204.017, 476.250 201.640 C 470.825 199.232, 453.369 197.039, 439.500 197.022 C 429.361 197.010, 427.006 197.309, 424.314 198.950 M 141.261 240.747 L 128.021 241.058 126.641 243.779 C 125.881 245.276, 124.940 248.750, 124.549 251.500 C 124.158 254.250, 122.735 261.450, 121.388 267.500 C 120.041 273.550, 117.839 283.450, 116.495 289.500 C 115.151 295.550, 113.363 305, 112.521 310.500 C 111.680 316, 110.028 324.425, 108.851 329.223 C 105.941 341.076, 106.011 341.146, 120.355 340.781 L 131.414 340.500 132.227 336.578 C 133.430 330.776, 134.484 329.987, 140.872 330.100 C 150.176 330.264, 151.373 330.908, 152.352 336.269 C 153.124 340.496, 153.511 340.999, 156.353 341.473 C 158.084 341.761, 163.550 341.661, 168.500 341.249 C 179.396 340.342, 179.297 340.557, 175.584 325.727 C 174.176 320.102, 172.546 312.350, 171.963 308.500 C 171.380 304.650, 170.269 299.025, 169.495 296 C 168.720 292.975, 167.405 286.675, 166.571 282 C 165.738 277.325, 163.967 268.325, 162.634 262 C 161.302 255.675, 159.922 248.827, 159.567 246.782 C 158.951 243.234, 156.624 239.753, 155.179 240.218 C 154.805 240.338, 148.542 240.577, 141.261 240.747 M 461.185 240.882 L 457.870 241.500 457.878 290.860 C 457.883 318.008, 458.173 340.506, 458.522 340.855 C 459.620 341.953, 482.106 342.294, 483.171 341.229 C 484.723 339.677, 484.280 241.797, 482.716 240.803 C 481.312 239.911, 466.091 239.966, 461.185 240.882 M 39.020 275.750 C 39.040 310.508, 39.785 321.755, 42.404 326.808 C 45.379 332.549, 51.940 338.791, 56.753 340.460 C 67.773 344.282, 81.995 343.345, 89.258 338.318 C 93.796 335.177, 99.395 327.619, 101.086 322.353 C 102.567 317.740, 103.343 277.598, 102.375 255.750 L 101.721 241 89.360 241 C 77.236 241, 76.998 241.043, 76.908 243.250 C 76.857 244.488, 76.895 261.173, 76.992 280.328 C 77.153 312.161, 77.019 315.322, 75.429 317.078 C 73.137 319.611, 69.516 319.516, 66.855 316.855 C 64.745 314.745, 64.718 314.291, 65.236 289.605 C 65.525 275.797, 65.528 259.212, 65.242 252.750 L 64.721 241 51.861 241 L 39 241 39.020 275.750 M 182.863 241.164 C 182.788 241.349, 182.604 263.550, 182.453 290.500 C 182.272 323.115, 182.525 339.918, 183.213 340.750 C 184.472 342.275, 202.583 342.489, 206.435 341.025 L 209 340.050 209 323.525 L 209 307 212.845 307 C 219.060 307, 219.724 308.526, 220.243 324 C 220.492 331.425, 221.018 338.236, 221.411 339.136 C 222.704 342.093, 249 342.879, 249 339.961 C 249 339.486, 248.325 336.506, 247.500 333.339 C 246.626 329.981, 246 323.182, 246 317.033 C 246 311.233, 245.609 305.140, 245.131 303.493 C 243.683 298.504, 238.098 293.305, 232.733 291.954 C 227.850 290.725, 226.450 289.699, 227.449 288.083 C 227.789 287.533, 229.503 287.576, 231.729 288.191 C 239.086 290.222, 244.769 284.683, 247.131 273.181 C 248.974 264.208, 246.629 255.237, 240.920 249.419 C 234.371 242.745, 229.337 241.616, 204.250 241.189 C 192.563 240.991, 182.939 240.979, 182.863 241.164 M 269.596 242.250 C 268.955 244.598, 264.705 266.485, 263.431 274 C 262.732 278.125, 261.689 282.850, 261.114 284.500 C 260.539 286.150, 259.141 293.324, 258.007 300.441 C 256.873 307.559, 255.017 317.009, 253.883 321.441 C 252.748 325.874, 251.748 332.200, 251.660 335.500 L 251.500 341.500 262 341.753 C 267.775 341.892, 273.112 341.610, 273.859 341.127 C 274.606 340.643, 275.452 338.167, 275.739 335.624 L 276.260 331 285.118 331 L 293.976 331 294.594 334.862 C 294.934 336.986, 295.597 339.349, 296.068 340.112 C 297.233 342, 317.407 342.737, 319.537 340.970 C 321.493 339.346, 321.380 335.381, 319.116 326.167 C 317.295 318.754, 313.569 300.512, 308.358 273.500 C 304.230 252.101, 302.828 245.718, 301.727 243.299 C 300.700 241.045, 300.376 241, 285.308 241 C 273.860 241, 269.850 241.319, 269.596 242.250 M 327.214 242.068 C 323.336 243.258, 323.697 244.465, 328.229 245.460 L 331.500 246.178 327.500 247.964 L 323.500 249.751 327.500 250.535 L 331.500 251.319 327.680 252.923 C 323.614 254.630, 323.697 256, 327.867 256 C 330.678 256, 329.735 257.582, 326.583 258.153 C 323.390 258.731, 323.733 260.632, 327.218 261.673 L 330.500 262.654 327.250 263.407 C 323.183 264.348, 323.083 265.640, 327.009 266.502 C 330.506 267.270, 330.056 269, 326.358 269 C 322.785 269, 323.897 271.217, 328.003 272.281 C 330.559 272.943, 331.024 273.372, 329.935 274.061 C 329.146 274.561, 327.375 275.010, 326 275.059 C 323.827 275.137, 324.017 275.377, 327.448 276.891 C 330.627 278.294, 331.050 278.767, 329.616 279.317 C 328.637 279.693, 326.861 280.034, 325.668 280.076 C 323.949 280.136, 324.159 280.395, 326.678 281.326 C 331.265 283.020, 331.485 283.644, 327.785 284.465 L 324.500 285.193 328 286.758 L 331.500 288.323 327.750 289.261 C 323.254 290.385, 322.812 292, 327 292 C 330.442 292, 331.088 293.701, 327.828 294.180 C 324.591 294.657, 324.518 296.655, 327.706 297.515 L 330.500 298.268 327 299.254 C 323.297 300.296, 323.341 300.354, 329.500 302.544 C 331.214 303.154, 330.999 303.399, 328 304.261 L 324.500 305.266 327.933 306.711 C 330.590 307.829, 331.042 308.361, 329.933 309.062 C 329.145 309.561, 327.637 309.976, 326.583 309.985 C 324.070 310.005, 325.343 311.222, 329.322 312.603 L 332.500 313.706 329.250 314.432 C 325.715 315.223, 324.809 317, 327.941 317 C 331.174 317, 331.222 318.792, 328.009 319.498 C 324.664 320.233, 323.910 322, 326.941 322 C 329.933 322, 330.294 323.709, 327.452 324.423 C 324.616 325.135, 325.055 327, 328.059 327 C 329.127 327, 330 327.450, 330 328 C 330 328.550, 329.127 329, 328.059 329 C 324.780 329, 324.674 330.985, 327.917 331.633 C 331.169 332.284, 331.186 334, 327.941 334 C 325.125 334, 325.562 335.445, 328.750 336.677 L 331.500 337.739 328 339.083 L 324.500 340.428 327.500 341.095 C 332.573 342.225, 361.588 342.066, 367.201 340.878 C 374.083 339.422, 376.701 338.026, 381.757 333.120 C 387.034 327.998, 389.328 323.412, 391.318 314 C 394.059 301.039, 394.303 294.151, 392.528 279.908 C 390.443 263.175, 389.524 259.504, 386.173 254.539 C 378.932 243.811, 373.517 241.925, 348.500 241.422 C 338.116 241.213, 329.110 241.486, 327.214 242.068 M 398.223 290.917 C 398.375 318.372, 398.725 341.028, 399 341.264 C 399.275 341.500, 411.327 341.480, 425.782 341.219 L 452.063 340.745 451.782 329.622 L 451.500 318.500 437.708 318.222 L 423.917 317.943 424.208 310.222 L 424.500 302.500 435.500 302 L 446.500 301.500 446.500 291.500 L 446.500 281.500 435 281 L 423.500 280.500 423.206 273.236 C 422.993 267.979, 423.269 265.845, 424.206 265.516 C 424.918 265.265, 431.125 264.901, 438 264.707 L 450.500 264.354 450.782 252.677 L 451.063 241 424.505 241 L 397.946 241 398.223 290.917 M 209 273.500 C 209 284.663, 209.064 285, 211.188 285 C 212.392 285, 214.864 283.988, 216.682 282.750 C 220.408 280.214, 221.583 276.384, 220.686 269.697 C 220.011 264.666, 217.138 262, 212.389 262 L 209 262 209 273.500 M 353.667 263.667 C 353.300 264.033, 353 276.633, 353 291.667 L 353 319 355.777 319 C 357.305 319, 359.521 318.324, 360.701 317.497 C 364.613 314.757, 365.500 309.765, 365.500 290.500 C 365.500 273.288, 365.396 272.333, 363.123 268.677 C 360.425 264.337, 355.569 261.764, 353.667 263.667 M 141.544 269.928 C 141.218 270.456, 140.294 277.776, 139.490 286.194 C 138.687 294.612, 137.750 302.794, 137.408 304.375 C 136.681 307.734, 138.051 308.969, 142.500 308.969 C 147.951 308.969, 148.099 308.510, 146.529 296.455 C 145.745 290.430, 144.792 282, 144.411 277.722 C 143.751 270.303, 142.841 267.830, 141.544 269.928 M 283.475 277.750 C 283.092 282.012, 282.184 290.429, 281.457 296.454 C 280.729 302.479, 280.356 307.766, 280.626 308.204 C 280.897 308.642, 283.791 309, 287.059 309 C 293.490 309, 294.198 308.127, 292.093 302.797 C 291.594 301.534, 290.435 294.425, 289.517 287 C 287.554 271.120, 287.291 270, 285.518 270 C 284.564 270, 283.967 272.263, 283.475 277.750" stroke="none" fill="#000000" fill-rule="evenodd"/>
</svg>